/* XPM */
static char *d0ccb431b49448b0cd0ff2f714db15c2Kfr1WzvqIo7GYcYZ[] = {
/* columns rows colors chars-per-pixel */
"64 64 107 2 ",
"   c #94B33E",
".  c #96B53D",
"X  c #97B63E",
"o  c #98B73F",
"O  c #99B93E",
"+  c #9ABA3F",
"@  c #97B641",
"#  c #98B740",
"$  c #99B840",
"%  c #99B841",
"&  c #9AB941",
"*  c #9BBB40",
"=  c #9AB942",
"-  c #9BBA42",
";  c #9BBA43",
":  c #9CBB43",
">  c #9CBC41",
",  c #9EBE41",
"<  c #9DBD42",
"1  c #9EBE43",
"2  c #9BBA45",
"3  c #9CBB44",
"4  c #9DBC44",
"5  c #9DBC45",
"6  c #9EBD45",
"7  c #9FBF44",
"8  c #9EBD46",
"9  c #9FBE46",
"0  c #9FBE47",
"q  c #9FBE49",
"w  c #A0BF47",
"e  c #A0BF48",
"r  c #A0C045",
"t  c #A1C146",
"y  c #A3C346",
"u  c #A2C247",
"i  c #A6C647",
"p  c #A7C846",
"a  c #A1C048",
"s  c #A1C049",
"d  c #A2C149",
"f  c #A3C348",
"g  c #A2C14A",
"h  c #A3C24A",
"j  c #A3C24B",
"k  c #A4C34B",
"l  c #A5C548",
"z  c #A4C449",
"x  c #A7C748",
"c  c #A6C649",
"v  c #A5C54A",
"b  c #A7C74A",
"n  c #A6C64B",
"m  c #A4C34C",
"M  c #A4C34E",
"N  c #A5C44C",
"B  c #A5C44D",
"V  c #A6C54D",
"C  c #A7C74C",
"Z  c #A5C44F",
"A  c #A6C54E",
"S  c #A7C64E",
"D  c #A7C64F",
"F  c #A8C74F",
"G  c #A8C849",
"H  c #AACB49",
"J  c #A9C94A",
"K  c #A8C84B",
"L  c #AACA4B",
"P  c #A9C94C",
"I  c #A8C84D",
"U  c #ABCB4C",
"Y  c #AACA4D",
"T  c #A9C94E",
"R  c #ABCB4E",
"E  c #AACA4F",
"W  c #ACCC4D",
"Q  c #ACCC4F",
"!  c #A6C550",
"~  c #A7C651",
"^  c #A8C750",
"/  c #A8C752",
"(  c #A9C850",
")  c #A9C851",
"_  c #AAC951",
"`  c #ABCB50",
"'  c #AAC952",
"]  c #ABCA52",
"[  c #ABCA53",
"{  c #ACCB53",
"}  c #ADCD50",
"|  c #ACCC51",
" . c #AECE51",
".. c #ADCD52",
"X. c #AFCF52",
"o. c #AECE53",
"O. c #ACCB54",
"+. c #ADCC54",
"@. c #ADCC55",
"#. c #AECD55",
"$. c #AFCF54",
"%. c #AECD56",
"&. c #AFCE56",
"*. c #AFCE57",
"=. c #B0CF57",
"-. c #B0D055",
";. c #B1D156",
/* pixels */
"` | C ` E | E E ` E C | ` | E E E E E E | E ` I z | Q J E E Q J E E E F | { / / E Q Q J E J Q E J J | %.F =./ E E E E J E | E { ",
"E C t E E E z E E E E ` z ` E E | ` z f E E ` E E Q I E E E E E E E b t ` ` { { z E E E =.z E E J E E F w ` E E E E | | | { F { ",
"E z 7 E E E z C C | ` k 3 C ` O.| E d t E I | C C ` E ` t < b =.| { F w b E E b z E { E z + z %.E { E k w E E Q b z E | E t 4 m ",
"E C t E E | E E C | E k 7 F / ! E ` J z ` E | C ! ` O.` w 4 F / F / F k E E { E F { { E z 4 F | z ` { F z Q b E E F | | E k 7 F ",
"` | ` | C | | ` E E F O.! / e 2 E | ` E | E | E ` / E { ` / ` 7 w C { F =.E { E { { F F { { { w 7 C E E E =.b | E E Q F E Q ` O.",
"E | ` E 7 E ` C ` b z ` ` ` ! e E E E E | t E | { E z z E { | t k F { E E l b Q E E z z | | | l e C E E E E t J E E E l k E / ` ",
"C E E E < z ` E { z k E z { { { E E C E E < E ` E Q z z z z Q | F E | E / e k ` E E E t b z | E / E F E E J w F E | | z b | ` / ",
"` E E | t z | | E Q E | J E E J E E E | | < z | E E J E =.J J Q E E E E { d m O.Q E J J { J E F ` { J E Q E w / E | E F E { F { ",
"E k m { =.E F w ` ` / { 4 w { F | E < E E E E E 4 F / { C 4 k { { { w m F F { { w F { { { = t ` J | | t z E | E E < { E O.C # O.",
"{ e 3 F E E F 4 d / / O.w k { { E E < z E | | z 4 k F ` C d k F F F w w F { { F o w F F { k z | E E F < z E E { z + b F ` F 3 / ",
"J b / =.J i E F m { ` O.F F { { E | z E | | | E k F O.{ O.%.{ { { { C F { { { F F F { { | { J E | | ` z | E ` E ` m { O.E | E E ",
"E ` { O.J x { E { { d C { { F k | | E | E z z | { { O.e k =.F F F F / { { F k { / F { k k E E E z ` | | | Q z l O.{ ` ` w b { E ",
"E E F { U b E F { E 4 w { E k 4 E E E Q | b E | b E E 4 t E b z w F { F F F F F E F { t w E F E < z | | E E E E F { F / < l E E ",
"J E C F E J E F { { k k { F F k { E E t E =.E z b { E z z { E E k { { w F =.{ F F { { E l E E E z ` | E t E | | t F { { i F | E ",
"{ m 3 e E Q V 4 { { { F =.F { / E J E + z | b < z E E E E E E E F { F 4 w { F k 4 F b E F | E | E ` E C < l E E e k ` / E E E J ",
"E { ! / E F F V F / { F { F { F E E =.t E | E E z E E | | z { E { F { F F { k { l =.F E E E J E ` ` ` | k E E { F F { E | { J E ",
"E E E E Q E Q E | J E ` z | E { J | b E | { E Q | | E E | E F { E | z | E E E | E E E E | E | E ` E C ` F F | E E E | E E E F O.",
"E l < | E =.z l Q E { J d ` F / | ` t t E | E z t E E | z t / / | E t < E Q %.z z E E E z < E | ` ` O.3 4 =.E E E z E E E l w F ",
"{ z t | z E F E { E F w = / ` *.| E t z E E E C | E | Q < < ` ` E | I r z E | E z | | E z + z | E F *.m w { E | E z E | E t 7 / ",
"| E E | ` E Q -.F ` { { C ` e 2 { | E | | E | | | E E | b E ` 3 t | Q | E | | E E | E E E z z i t C ` %.%.F E E E E | | E F C { ",
"E E ` E E E | z ` m C O.{ O.e = E | E | E z ` E E E t z | | F 4 t E z $.E E E E | | z z E Q | r 7 / E E E E E F E E { z z | { { ",
"E | E E < E E E | l w F F %.` { E E E | z t z E Q | k t { E E F I E E E J < z | E E E z E { =.z / C | E E F 4 F z | Q t z | { F ",
"E | E E + E E | | E E | F { C / E E | | z < E | b E E =.E E { { | | | E E = z ` E E E z E z | E =.F | E | E = F | | { b E E F { ",
"E C E E | | ` z J E | E t z E | | E z | | E | E E b E Q r w / F E ` t | | | E E E E E | E w J E m %.b k E Q { { | z J { E z d { ",
"E 4 e E E Q b # F E E b t z E E E z < z E | E z = d %.{ k 7 k { ` ! = C ` { / F o w { { F w w { F { F o F F =.F k o k / E k + Q ",
"E d / ` E b F e F Q =.E z E | | E E z E E | E z t F %.{ ` / / { E %.d F / ` { F w F { { { F E { { { { w { F { F E w { O.E E b | ",
"` / =.C E i E { E E E b ` | E C E E E ` E z E | / ` F F E { O.C C O.` { F F F / { { F z / { E J F { { F { F F F { / { ` b { | E ",
"E [ O.C E z E =.E E t t | | t < ` E E | | z E | { { k w k { / k d / / { { F F { { =.F w l E E z w F F =.F { F F ` O./ z w z | E ",
"E ` m / { Q z { | E t t E | i 7 | | z E E E E z E | F t z E E z F F { F F { F F F { / w l E E b w { F { k { F F z E E E k k { ` ",
"b F 3 ! b =.w k E | E E E E E { E | E < E | ` < z E E E E Q | z F { { 4 k { { k e ` { F F { E E F { F F w F { { w l E E E F C / ",
"E J d C b Q l t E E E E E E E | C | E t z E ` t F E E Q E E E E F F { 4 k { F k k E Q E E E E E { F F F e F ` ` r i J F { / w m ",
"E E { { { E E F | E E E E E E z E | ` E | E | | Q E E E E E E E { F { F =.{ F =.E | E E E E E E { F { =./ / ' ` E E =.z =.{ 3 F ",
"E t F Q E E E Q F F { / F =.{ E I E t E | E E E J =.E E =.{ / F b | z z Q E E E E | b E =.{ / F F { F k F E E E { F E F =.F / { ",
"Q r t E | { z k =.{ { k w F F / | E < f E E E d b E { b 4 4 { =.E { w t E | E i l E { E 7 4 / { { =.F 4 l E E Q k F { { F 4 k { ",
"| z z E Q E b E { E V 4 w F / =.| E f z E E E J E E E E 4 w { F E { i z E E ` E E E | E 3 w { C k =.F l b E E E F F { F E w k F ",
"| E | E E E E =.F F { _ _ F 7 4 E Q E | E E | | E E E { E F { # b E E { Q F ` ` | E E { / { E 4 w E { / E =.E E { { { F { F F { ",
"E E | z b Q E b { k F _ { F w w ` E E E z z | E F E z z F { F w z E ` | E z E E E E z b { { C w l F E E { C k { F F { k F F { { ",
"E E | d w F E E _ k e V { O.{ =.| ` ` E t r E E E E z z { { E F E | | | d t z E E | z z { { / { F E E Q { e w { F { { e / { { F ",
"E E | z w b E { F F { { O.O.F E E ` | | t t E E E E E E { F { { E | | | z t Q | | E z E / F O.O.E | E E { V k / { _ F V { E { F ",
"E z Q | E =.b l E { =.e 3 C ` { ` C z | { ` | l E J E =.w 4 F { | z z E ` | | z b z E =.k 4 C / E E b k / E F { k V { { F w k { ",
"! 4 z { | F z   b E Q J , J E J [ d < C [ / / 7 o C O.O.e C C / | E + z E | z f . k | { m m C / C ` z + E E E E w o _ F F e w { ",
"` C E Q E E ` m F E E | b E { | ` E E | ` ` { C F ` O.O.F / { | | | z E | E | ` C ! { %.` E ` O.` | J t E E E E F k { { { _ l =.",
"C ! | i i i ` ` E E k { { E z E z E E | z i E J | E E z E E E z C E E E E t z | | ` C C ` | E z E ` E E | E z E { _ { V k { b { ",
"` ` =.i | z { O.E F 4 C { ` d d | E J | | d E | E E z < z { Q w f | E | E E E E E | z 7 t | ` t t ` E | E E z E { { F k w E b E ",
"{ / k F -.` m / { E w k { { k k O.{ k F { ` / m E E E t F Q | t z -.E E C | E z F | E d z | | z d | E E l E E Q k { { F r E E E ",
"{ F # E F O.7 m E | E E b E E E / { w 4 C [ / = E E E E Q E E E E | z + z E ` < E E Q E E E | | E | E t w E { E < / | { J E | E ",
"{ / w { F { k / E E E Q b { E | F =.F k ` | ` d E E E | E E J { | | ` t | I | f E E E E Q I E E E E E z z b E E e F E E E E E E ",
"E b E E { b J E Q b b =.J E E J J E E E | b E | E | E E E | E { z | E E | | E | E E E E E | ` I | I | E Q E { b =.E E J | E | E ",
"{ w w F { F k F x Q { m ! O.E U ` / = k { F ` e E J { E w F { F { E 4 w { { E k E E | | k m { / ` [ d 7 e _ _ { k b { F E e V =.",
"E w k F ` E m / Q Q F o 3 / E | ` ` e / { / { F E E E z o k / O.F { e k { { _ F E | | b # 7 { %.` O./ e F F F F E E Q F F 3 w F ",
"E b E | E { E E E E Q E F ` k t Q Q E E E E E Q b { E Q F { k = F _ F { { _ { { E E E | / F C 3 k { { C _ =.F F E F E F { l F { ",
"E E =.E J | | E { k b | Q k 3 d | E E E E E E E E E l E O.O.d 4 F { F _ { F F { | F z { | { ` = k / ` / { E F =.{ E E b E E E { ",
"E E { l w b { E { w z E E z z O.E F { E d d C ` E E w J F E C / F _ / E k e F { { F k C F E | C F / { F F e w { E E J w b E E E ",
"| E E l w E | E E E | { E =.{ { E E | | t 7 ` O.E E t | { F ` E _ _ _ { k w / { E { F F ` ` Q C { { F { E k w / F ` E k E { | E ",
"E F / F F { F m J E { e w / | E ` ! F { E C ` C { %.k { t k | E _ F F { F b { / / O.F F C z J E { E V F { F F { / ` O.{ { t z E ",
"w w F E { F t 4 J J O.m w F E J ` k = / ` / %.7 = F { =.4 < Q E _ w w V { { { e o C { { i + k =.E / e w F { _ { = 4 F E { 4 t =.",
"k F F F { F k k E { F { F { { F | I t C | E E t f I E E | z | | E F k z { =.b z d F { / { z F | E | z z E | | E k k F { E b E | ",
"{ { { { F { F { F { F / F F F { E E ` | | z | | E ` Q E | E | z E E E E E b b E / ` O.C | | | E E | | E E E z z / ` { { F E E E ",
"F { F { k F F { ` k w F { F w F I E Q | E f I | E ` z t E E | < E E E { { E E | E | E w F { ` 3 E E Q E | E E E F { / w t E =.E ",
"F { k =.F { F { / F 7 F { F w k | E I E E E | z E E z r I E | < E E b b E | E b E ` J < z { / 7 z E { z E | | | F O.{ w w E E b ",
"{ k w { F F w F { { F F { { F F ` E t t E | E < | | E C | E | E ` ` k t b { z < E E | z O.O.O.` z Q ` d t b E z w E | E E { { F ",
"{ k 4 F F F k k F { { { w k F { I ` f d z E E < ` ` ` E E t E E C ` J t b { J t z E | Q { m C %.| | Q z t E | E < b E E | F F { ",
"{ { F { { { F { F F { F 4 k { { ` | E ` | | | E C E E E E < C | E ` E C E E E E J E E E / 4 7 ! | E E E F E | E E | E b F w 4 F ",
"F F { { F F { { { F F { k F { F E E C | | C E E E ` | E | d ` | ` ` E E ` E E E E J { E { w d %.| z E | Q E E E E | F E { F k { "
};
